<mxfile host="Electron" modified="2023-08-17T12:18:25.957Z" agent="Mozilla/5.0 (X11; Linux x86_64) AppleWebKit/537.36 (KHTML, like Gecko) draw.io/21.6.8 Chrome/114.0.5735.289 Electron/25.5.0 Safari/537.36" etag="ts4SfyUADG0lF00CiRCy" version="21.6.8" type="device">
  <diagram id="C5RBs43oDa-KdzZeNtuy" name="Page-1">
    <mxGraphModel dx="1434" dy="856" grid="1" gridSize="10" guides="1" tooltips="1" connect="1" arrows="1" fold="1" page="1" pageScale="1" pageWidth="827" pageHeight="1169" math="0" shadow="0">
      <root>
        <mxCell id="WIyWlLk6GJQsqaUBKTNV-0" />
        <mxCell id="WIyWlLk6GJQsqaUBKTNV-1" parent="WIyWlLk6GJQsqaUBKTNV-0" />
        <mxCell id="rn3ayhJtbb8CE3tqyZ9I-13" style="edgeStyle=orthogonalEdgeStyle;rounded=0;orthogonalLoop=1;jettySize=auto;html=1;" parent="WIyWlLk6GJQsqaUBKTNV-1" source="rn3ayhJtbb8CE3tqyZ9I-0" target="rn3ayhJtbb8CE3tqyZ9I-1" edge="1">
          <mxGeometry relative="1" as="geometry" />
        </mxCell>
        <mxCell id="rn3ayhJtbb8CE3tqyZ9I-0" value="Event Reflex" style="rounded=0;whiteSpace=wrap;html=1;" parent="WIyWlLk6GJQsqaUBKTNV-1" vertex="1">
          <mxGeometry x="360" y="400" width="120" height="80" as="geometry" />
        </mxCell>
        <mxCell id="rn3ayhJtbb8CE3tqyZ9I-14" style="edgeStyle=orthogonalEdgeStyle;rounded=0;orthogonalLoop=1;jettySize=auto;html=1;" parent="WIyWlLk6GJQsqaUBKTNV-1" source="rn3ayhJtbb8CE3tqyZ9I-1" target="rn3ayhJtbb8CE3tqyZ9I-2" edge="1">
          <mxGeometry relative="1" as="geometry" />
        </mxCell>
        <mxCell id="rn3ayhJtbb8CE3tqyZ9I-1" value="Chose Relex Template" style="rounded=0;whiteSpace=wrap;html=1;" parent="WIyWlLk6GJQsqaUBKTNV-1" vertex="1">
          <mxGeometry x="360" y="520" width="120" height="80" as="geometry" />
        </mxCell>
        <mxCell id="rn3ayhJtbb8CE3tqyZ9I-15" style="edgeStyle=orthogonalEdgeStyle;rounded=0;orthogonalLoop=1;jettySize=auto;html=1;" parent="WIyWlLk6GJQsqaUBKTNV-1" source="rn3ayhJtbb8CE3tqyZ9I-2" target="rn3ayhJtbb8CE3tqyZ9I-3" edge="1">
          <mxGeometry relative="1" as="geometry" />
        </mxCell>
        <mxCell id="rn3ayhJtbb8CE3tqyZ9I-2" value="Random Precision Value" style="rounded=0;whiteSpace=wrap;html=1;" parent="WIyWlLk6GJQsqaUBKTNV-1" vertex="1">
          <mxGeometry x="360" y="640" width="120" height="80" as="geometry" />
        </mxCell>
        <mxCell id="rn3ayhJtbb8CE3tqyZ9I-16" style="edgeStyle=orthogonalEdgeStyle;rounded=0;orthogonalLoop=1;jettySize=auto;html=1;" parent="WIyWlLk6GJQsqaUBKTNV-1" source="rn3ayhJtbb8CE3tqyZ9I-3" target="rn3ayhJtbb8CE3tqyZ9I-4" edge="1">
          <mxGeometry relative="1" as="geometry" />
        </mxCell>
        <mxCell id="rn3ayhJtbb8CE3tqyZ9I-3" value="Generate Pictures" style="rounded=0;whiteSpace=wrap;html=1;" parent="WIyWlLk6GJQsqaUBKTNV-1" vertex="1">
          <mxGeometry x="360" y="760" width="120" height="80" as="geometry" />
        </mxCell>
        <mxCell id="rn3ayhJtbb8CE3tqyZ9I-17" style="edgeStyle=orthogonalEdgeStyle;rounded=0;orthogonalLoop=1;jettySize=auto;html=1;" parent="WIyWlLk6GJQsqaUBKTNV-1" source="rn3ayhJtbb8CE3tqyZ9I-4" target="rn3ayhJtbb8CE3tqyZ9I-5" edge="1">
          <mxGeometry relative="1" as="geometry" />
        </mxCell>
        <mxCell id="rn3ayhJtbb8CE3tqyZ9I-4" value="Generate Solution Range" style="rounded=0;whiteSpace=wrap;html=1;" parent="WIyWlLk6GJQsqaUBKTNV-1" vertex="1">
          <mxGeometry x="360" y="880" width="120" height="80" as="geometry" />
        </mxCell>
        <mxCell id="rn3ayhJtbb8CE3tqyZ9I-18" style="edgeStyle=orthogonalEdgeStyle;rounded=0;orthogonalLoop=1;jettySize=auto;html=1;" parent="WIyWlLk6GJQsqaUBKTNV-1" source="rn3ayhJtbb8CE3tqyZ9I-5" target="rn3ayhJtbb8CE3tqyZ9I-6" edge="1">
          <mxGeometry relative="1" as="geometry" />
        </mxCell>
        <mxCell id="rn3ayhJtbb8CE3tqyZ9I-5" value="Send To Client Picture" style="rounded=0;whiteSpace=wrap;html=1;" parent="WIyWlLk6GJQsqaUBKTNV-1" vertex="1">
          <mxGeometry x="360" y="1000" width="120" height="80" as="geometry" />
        </mxCell>
        <mxCell id="rn3ayhJtbb8CE3tqyZ9I-19" style="edgeStyle=orthogonalEdgeStyle;rounded=0;orthogonalLoop=1;jettySize=auto;html=1;" parent="WIyWlLk6GJQsqaUBKTNV-1" source="rn3ayhJtbb8CE3tqyZ9I-6" target="rn3ayhJtbb8CE3tqyZ9I-7" edge="1">
          <mxGeometry relative="1" as="geometry" />
        </mxCell>
        <mxCell id="rn3ayhJtbb8CE3tqyZ9I-6" value="Send to Client Choosen Template" style="rounded=0;whiteSpace=wrap;html=1;" parent="WIyWlLk6GJQsqaUBKTNV-1" vertex="1">
          <mxGeometry x="360" y="1120" width="120" height="80" as="geometry" />
        </mxCell>
        <mxCell id="rn3ayhJtbb8CE3tqyZ9I-20" style="edgeStyle=orthogonalEdgeStyle;rounded=0;orthogonalLoop=1;jettySize=auto;html=1;entryX=0.5;entryY=0;entryDx=0;entryDy=0;" parent="WIyWlLk6GJQsqaUBKTNV-1" source="rn3ayhJtbb8CE3tqyZ9I-7" target="rn3ayhJtbb8CE3tqyZ9I-8" edge="1">
          <mxGeometry relative="1" as="geometry" />
        </mxCell>
        <mxCell id="rn3ayhJtbb8CE3tqyZ9I-7" value="Client Displays Reflex" style="rounded=0;whiteSpace=wrap;html=1;" parent="WIyWlLk6GJQsqaUBKTNV-1" vertex="1">
          <mxGeometry x="360" y="1240" width="120" height="80" as="geometry" />
        </mxCell>
        <mxCell id="rn3ayhJtbb8CE3tqyZ9I-21" style="edgeStyle=orthogonalEdgeStyle;rounded=0;orthogonalLoop=1;jettySize=auto;html=1;" parent="WIyWlLk6GJQsqaUBKTNV-1" source="rn3ayhJtbb8CE3tqyZ9I-8" target="rn3ayhJtbb8CE3tqyZ9I-9" edge="1">
          <mxGeometry relative="1" as="geometry" />
        </mxCell>
        <mxCell id="rn3ayhJtbb8CE3tqyZ9I-8" value="Player makes Input" style="rounded=0;whiteSpace=wrap;html=1;" parent="WIyWlLk6GJQsqaUBKTNV-1" vertex="1">
          <mxGeometry x="360" y="1360" width="120" height="80" as="geometry" />
        </mxCell>
        <mxCell id="rn3ayhJtbb8CE3tqyZ9I-22" style="edgeStyle=orthogonalEdgeStyle;rounded=0;orthogonalLoop=1;jettySize=auto;html=1;" parent="WIyWlLk6GJQsqaUBKTNV-1" source="rn3ayhJtbb8CE3tqyZ9I-9" target="rn3ayhJtbb8CE3tqyZ9I-10" edge="1">
          <mxGeometry relative="1" as="geometry" />
        </mxCell>
        <mxCell id="rn3ayhJtbb8CE3tqyZ9I-9" value="Generate Value of Input" style="rounded=0;whiteSpace=wrap;html=1;" parent="WIyWlLk6GJQsqaUBKTNV-1" vertex="1">
          <mxGeometry x="360" y="1480" width="120" height="80" as="geometry" />
        </mxCell>
        <mxCell id="rn3ayhJtbb8CE3tqyZ9I-23" style="edgeStyle=orthogonalEdgeStyle;rounded=0;orthogonalLoop=1;jettySize=auto;html=1;" parent="WIyWlLk6GJQsqaUBKTNV-1" source="rn3ayhJtbb8CE3tqyZ9I-10" target="rn3ayhJtbb8CE3tqyZ9I-11" edge="1">
          <mxGeometry relative="1" as="geometry" />
        </mxCell>
        <mxCell id="rn3ayhJtbb8CE3tqyZ9I-10" value="Send Value Back to Server" style="rounded=0;whiteSpace=wrap;html=1;" parent="WIyWlLk6GJQsqaUBKTNV-1" vertex="1">
          <mxGeometry x="360" y="1600" width="120" height="80" as="geometry" />
        </mxCell>
        <mxCell id="rn3ayhJtbb8CE3tqyZ9I-24" style="edgeStyle=orthogonalEdgeStyle;rounded=0;orthogonalLoop=1;jettySize=auto;html=1;" parent="WIyWlLk6GJQsqaUBKTNV-1" source="rn3ayhJtbb8CE3tqyZ9I-11" target="rn3ayhJtbb8CE3tqyZ9I-12" edge="1">
          <mxGeometry relative="1" as="geometry" />
        </mxCell>
        <mxCell id="rn3ayhJtbb8CE3tqyZ9I-11" value="Server validates Value against Solution Range" style="rounded=0;whiteSpace=wrap;html=1;" parent="WIyWlLk6GJQsqaUBKTNV-1" vertex="1">
          <mxGeometry x="360" y="1720" width="120" height="80" as="geometry" />
        </mxCell>
        <mxCell id="rn3ayhJtbb8CE3tqyZ9I-12" value="Penalty if failed / Event&lt;br&gt;On Success do Nothing" style="rounded=0;whiteSpace=wrap;html=1;" parent="WIyWlLk6GJQsqaUBKTNV-1" vertex="1">
          <mxGeometry x="360" y="1840" width="120" height="80" as="geometry" />
        </mxCell>
      </root>
    </mxGraphModel>
  </diagram>
</mxfile>
